<?xml version="1.0" standalone="no"?>
<!DOCTYPE svg PUBLIC "-//W3C//DTD SVG 20010904//EN"
 "http://www.w3.org/TR/2001/REC-SVG-20010904/DTD/svg10.dtd">
<svg version="1.0" xmlns="http://www.w3.org/2000/svg"
 width="48.000000pt" height="48.000000pt" viewBox="0 0 48.000000 48.000000"
 preserveAspectRatio="xMidYMid meet">

<g transform="translate(0.000000,48.000000) scale(0.100000,-0.100000)"
fill="#000000" stroke="none">
<path d="M145 406 l-90 -33 3 -44 c2 -24 9 -79 15 -122 l12 -79 77 -41 77 -42
64 33 c97 50 95 47 107 147 5 50 12 104 15 120 5 33 3 34 -180 91 -5 2 -50
-12 -100 -30z m118 -33 c8 -21 36 -82 61 -135 45 -97 45 -98 22 -98 -18 0 -27
8 -35 30 -10 29 -12 30 -69 30 -57 0 -60 -1 -72 -30 -9 -22 -19 -30 -37 -30
-13 0 -22 3 -20 8 2 4 30 64 62 135 32 70 62 127 66 127 4 0 14 -17 22 -37z"/>
<path d="M217 275 l-17 -35 40 0 40 0 -17 35 c-9 19 -20 35 -23 35 -3 0 -14
-16 -23 -35z"/>
</g>
</svg>
