<?xml version="1.0" encoding="UTF-8"?>
<svg id="Capa_1" data-name="Capa 1" xmlns="http://www.w3.org/2000/svg" viewBox="0 0 100 40">
  <defs>
    <style>
      .cls-1 {
        fill: #263a4f;
        stroke: #263a4f;
        stroke-miterlimit: 10;
        stroke-width: .25px;
      }
    </style>
  </defs>
  <path class="cls-1" d="m39.81,34.71c-.35-.15-.82-.42-1.29-.86-.32-.29-.55-.59-.71-.84L26.8,3.8h-1.61c-3.78,9.57-7.55,19.14-11.33,28.71-.28.4-.84,1.1-1.81,1.63-1.12.62-2.17.67-2.66.66v1.44l10.96.1v-1.61c-1.19.36-2.4.06-3.05-.76-.45-.56-.5-1.2-.5-1.5l2.78-7.73h10.8c1,2.91,1.99,5.82,2.99,8.73-.17.24-.41.51-.74.75-1.05.78-2.25.71-2.66.67v1.48h1.39l10.34.13v-1.76c-.62-.01-1.25-.02-1.87-.03Zm-18.87-13.88l.19-.19,4.4-12.33,4.64,12.52h-9.23Z"/>
  <path class="cls-1" d="m34.89,21.65l-.77-1.99h8.52c3.63-.7,6.24-3.94,6.15-7.57-.09-3.5-2.65-6.52-6.15-7.2-4.62-.06-9.23-.13-13.85-.19l-.77-1.65h17.14c.61.07,4.04.51,6.15,3.49,1.08,1.52,1.36,3.07,1.45,3.92.07.77.25,3.68-1.71,6.41-1.51,2.09-3.47,2.96-4.29,3.28.89,2.28,4.07,9.54,12.04,13.9,11.98,6.55,24.21.75,25.43.15-1.91,1.4-5.16,3.4-9.62,4.44-6.73,1.57-12.3.03-14.73-.81-2.14-.74-5.31-2.12-8.51-4.74-4.12-3.38-6.3-7.2-7.38-9.44-.08-.27-.27-.81-.75-1.31-.52-.54-1.11-.75-1.38-.82-1.41.01-2.83.04-4.26.07-.91.02-1.81.04-2.71.07Z"/>
  <path class="cls-1" d="m81.25,11l1.55-.52-.77-8c-1.7-.69-4.02-1.42-6.84-1.68-5.07-.47-9.14.79-11.36,1.68-1.56.74-4.78,2.52-7.23,6.2-3.59,5.38-2.99,11.01-2.78,12.51.28,1.55,1.3,5.97,5.23,9.7,4.53,4.3,9.85,4.76,11.3,4.84,1.33.05,2.8.02,4.39-.13,3.19-.3,5.91-1,8.07-1.74v-10.65c.34-.37.85-.82,1.54-1.21,1.38-.77,2.71-.83,3.37-.81v-1.73h-14.2v1.73c.36-.07,2.24-.42,3.79.77.56.43.9.93,1.11,1.31v8.65c-.79.36-7.12,3.14-13.1-.17-7.83-4.33-6.97-14.64-6.92-15.13.13-1.25.68-6.76,5.49-10.52,3.89-3.04,8.18-3.07,9.49-3.03.63,0,3.14.1,5.29,2.07,2.51,2.29,2.58,5.36,2.58,5.87Z"/>
  <path class="cls-1" d="m73.54,20.92l-2.64,8.07c-.04.13-.07.3-.07.5,0,.23.04.43.07.56.2.22.55.56,1.09.81.77.36,1.48.33,1.81.29.31.02.84.02,1.45-.19.63-.22,1.06-.56,1.29-.77.04-.2.07-.44.07-.73,0-.25-.03-.48-.07-.66-1-2.63-2-5.25-3-7.88Z"/>
  <path class="cls-1" d="m87.55,20.92l-2.64,8.07c-.04.13-.07.3-.07.5,0,.23.04.43.07.56.2.22.55.56,1.09.81.77.36,1.48.33,1.81.29.31.02.84.02,1.45-.19.63-.22,1.06-.56,1.29-.77.04-.2.07-.44.07-.73,0-.25-.03-.48-.07-.66-1-2.63-2-5.25-3-7.88Z"/>
</svg>