<?xml version="1.0" standalone="no"?>
<!DOCTYPE svg PUBLIC "-//W3C//DTD SVG 20010904//EN"
 "http://www.w3.org/TR/2001/REC-SVG-20010904/DTD/svg10.dtd">
<svg version="1.0" xmlns="http://www.w3.org/2000/svg"
 width="48.000000pt" height="48.000000pt" viewBox="0 0 48.000000 48.000000"
 preserveAspectRatio="xMidYMid meet">

<g transform="translate(0.000000,48.000000) scale(0.100000,-0.100000)"
fill="#000000" stroke="none">
<path d="M200 354 c-46 -39 -80 -80 -117 -142 -29 -48 -53 -90 -53 -93 0 -3
19 -3 42 0 40 6 45 10 78 71 20 36 55 100 79 143 23 42 41 77 39 77 -2 -1 -32
-26 -68 -56z"/>
<path d="M260 301 l-30 -60 55 -64 c30 -35 55 -67 55 -71 0 -3 -17 -6 -37 -7
-21 0 -47 -4 -58 -9 -13 -6 20 -9 93 -9 61 -1 112 2 112 5 0 8 -151 274 -156
274 -2 0 -17 -27 -34 -59z"/>
</g>
</svg>
