<?xml version="1.0" encoding="utf-8"?>
<!-- Generator: Adobe Illustrator 25.2.3, SVG Export Plug-In . SVG Version: 6.00 Build 0)  -->
<svg version="1.1" id="Layer_1" xmlns="http://www.w3.org/2000/svg" xmlns:xlink="http://www.w3.org/1999/xlink" x="0px" y="0px"
	 viewBox="0 0 291 79.5" style="enable-background:new 0 0 291 79.5;" xml:space="preserve">
<style type="text/css">
	.st0{fill:#F08B1D;}
	.st1{fill:#92C82D;}
	.st2{fill:#33BFC1;}
	.st3{fill:#FFFFFF;}
	.st4{fill:#595959;}
</style>
<g id="Logos">
	<polygon class="st0" points="34.4,7.3 34.4,33.4 12.4,19.4 	"/>
	<polygon class="st1" points="34.4,7.3 56.5,19.4 56.5,47.5 34.4,33.4 	"/>
	<polygon class="st2" points="12.4,19.4 56.5,47.5 34.4,59.4 12.4,47.5 	"/>
	<path class="st3" d="M57.5,17.6L35.4,5.5c-0.6-0.3-1.3-0.3-1.9,0L11.4,17.6c-0.6,0.4-1,1-1,1.8v28.1c0,0.7,0.4,1.4,1.1,1.8l22,11.9
		c0.6,0.3,1.3,0.3,1.9,0l22.1-11.9c0.6-0.3,1.1-1,1.1-1.8V19.4C58.5,18.6,58.1,18,57.5,17.6z M54.5,43.8L36.4,32.3
		c0-0.1,0-0.1,0-0.1V10.7l18,9.9L54.5,43.8z M32.4,29.8L16.3,19.5l16.1-8.8V29.8z M34.4,57.1L14.4,46.3V23l38.1,24.3L34.4,57.1z"/>
	<path class="st4" d="M60.8,15.8L35.4,2.2c-0.6-0.3-1.3-0.3-1.9,0L8.1,15.8c-0.7,0.4-1.1,1-1.1,1.8v31.7C7,50,7.5,50.7,8.1,51
		l25.4,13.5c0.6,0.3,1.3,0.3,1.9,0L60.8,51c0.7-0.3,1.1-1,1.1-1.8V17.6C61.9,16.8,61.4,16.2,60.8,15.8z M58.5,47.5
		c0,0.7-0.4,1.4-1.1,1.8L35.4,61.1c-0.6,0.3-1.3,0.3-1.9,0L11.4,49.2c-0.6-0.3-1.1-1-1.1-1.8V19.4c0-0.7,0.4-1.4,1-1.8l22-12.1
		c0.6-0.3,1.3-0.3,1.9,0l22.1,12.1c0.6,0.4,1,1,1,1.8L58.5,47.5z"/>
	<path class="st4" d="M76.4,40.9V5.4h7.3v23.4c2.8-4.9,8-7.7,14.2-7.7c10,0,19.4,7.2,19.4,19.8c0,12-8.5,20.3-20.6,20.3
		C84.9,61.2,76.4,53.3,76.4,40.9z M109.9,41.2c0-7.7-5.2-13.3-13.1-13.3c-7.8,0-13,5.6-13,13.3s5.3,13.3,13,13.3
		C104.7,54.4,109.9,48.9,109.9,41.2z"/>
	<path class="st4" d="M124.7,22.1h7.3v38.1h-7.3V22.1z"/>
	<path class="st4" d="M140,54.2l24.6-25.6h-23.4v-6.6h33.2v6l-24.6,25.6h25.3v6.6H140V54.2z"/>
	<path class="st4" d="M179.8,41.5c0-12,8.5-20.4,20.6-20.4c12,0,20.3,8.2,20.3,20.4v18.8H214v-8.3c-2.5,6.2-8.2,9.3-14.8,9.3
		C189.2,61.2,179.8,54,179.8,41.5z M213.5,41.2c0-7.7-5.3-13.3-13.1-13.3c-7.9,0-13.1,5.6-13.1,13.3s5.3,13.3,13.1,13.3
		C208.2,54.4,213.5,48.9,213.5,41.2L213.5,41.2z"/>
	<path class="st4" d="M228.1,64.8h7.5c1.8,4.4,6.3,6.3,11.8,6.3c7.8,0,13-3.7,13-13.7v-4.4c-2.6,4.9-8,7.9-14.4,7.9
		c-9.9,0-19.3-6.8-19.3-19.8c0-11.6,8.5-20.1,20.5-20.1c12,0,20.4,8.1,20.4,20.4v15.7c0,14.7-9,20.4-20.2,20.4
		C238.1,77.5,230.8,73.6,228.1,64.8z M260.4,41.2c0-7.7-5.2-13.3-13.1-13.3c-7.9,0-13.1,5.6-13.1,13.3S239.4,54,247.3,54
		C255.2,54,260.4,48.9,260.4,41.2z"/>
	<path class="st4" d="M276.6,22.1h7.3v38.1h-7.3V22.1z"/>
</g>
</svg>
