<?xml version="1.0" standalone="no"?>
<!DOCTYPE svg PUBLIC "-//W3C//DTD SVG 20010904//EN"
 "http://www.w3.org/TR/2001/REC-SVG-20010904/DTD/svg10.dtd">
<svg version="1.0" xmlns="http://www.w3.org/2000/svg"
 width="886.000000pt" height="282.000000pt" viewBox="0 0 886.000000 282.000000"
 preserveAspectRatio="xMidYMid meet">

<g transform="translate(0.000000,282.000000) scale(0.100000,-0.100000)"
fill="#000000" stroke="none">
<path d="M2625 2810 c-135 -5 -144 -7 -215 -42 -80 -38 -147 -95 -198 -170
-17 -25 -70 -123 -117 -218 -100 -199 -143 -253 -244 -303 l-66 -32 -720 -5
c-800 -6 -752 -1 -788 -73 -22 -44 -67 -293 -67 -373 l0 -24 718 0 c464 0 739
4 776 11 147 27 212 86 336 303 148 261 204 327 326 383 56 26 68 27 299 35
132 5 386 8 565 6 289 -3 329 -5 357 -21 76 -41 96 -167 38 -242 -52 -69 -41
-68 -620 -66 -559 2 -577 0 -685 -51 -61 -30 -140 -111 -172 -178 -14 -30 -47
-98 -72 -152 -25 -53 -66 -121 -91 -151 -88 -108 -234 -182 -408 -206 -47 -7
-266 -11 -550 -11 -260 0 -562 -3 -673 -7 l-200 -6 -22 -186 c-13 -102 -22
-194 -22 -203 0 -17 44 -18 785 -18 543 0 800 3 837 11 84 18 139 48 201 112
50 50 71 86 158 264 114 232 155 285 264 339 l60 29 560 7 c516 6 569 8 670
28 260 51 371 107 441 226 52 88 64 173 64 455 0 306 -7 337 -90 412 -77 70
-185 107 -340 118 -139 9 -877 9 -1095 -1z"/>
<path d="M4404 2805 c-10 -25 4 -32 67 -37 102 -7 99 4 99 -348 0 -168 -4
-310 -10 -324 -7 -19 -21 -28 -55 -37 -25 -6 -45 -15 -45 -20 0 -12 507 -12
514 0 3 5 -12 11 -33 15 -73 11 -80 24 -87 173 -5 95 -4 136 5 146 9 12 41 14
169 10 86 -3 163 -10 170 -15 6 -6 16 -25 20 -42 6 -24 14 -31 33 -31 l24 0 3
128 3 127 -25 0 c-21 0 -27 -7 -36 -38 -18 -69 -31 -75 -192 -76 -79 -1 -149
0 -155 2 -10 3 -13 44 -13 159 l0 155 163 -4 c222 -7 299 -35 339 -125 10 -23
25 -43 33 -43 12 0 15 22 15 120 l0 120 -500 0 c-428 0 -501 -2 -506 -15z"/>
<path d="M5794 2805 c-10 -25 6 -35 57 -35 50 0 87 -13 101 -34 4 -6 8 -154 8
-328 l0 -318 -26 -17 c-14 -9 -50 -19 -80 -21 -30 -2 -54 -8 -54 -13 0 -5 226
-8 528 -7 l527 3 27 105 c14 58 27 111 27 118 2 25 -28 11 -49 -23 -71 -115
-228 -171 -459 -164 -142 5 -142 6 -139 188 l3 136 67 3 c74 3 213 -20 256
-42 15 -8 37 -31 47 -50 37 -69 45 -49 45 114 0 83 -4 150 -9 150 -5 0 -21
-16 -35 -35 -15 -19 -44 -44 -65 -55 -44 -22 -183 -43 -256 -38 l-50 3 0 150
0 150 127 3 c221 5 325 -32 376 -131 42 -80 52 -65 52 78 l0 125 -510 0 c-437
0 -511 -2 -516 -15z"/>
<path d="M7446 2804 c-10 -26 3 -34 55 -34 50 0 87 -13 101 -34 4 -6 8 -153 8
-327 0 -353 3 -340 -72 -353 -21 -4 -38 -11 -38 -16 0 -6 102 -10 260 -10 245
0 318 8 219 25 -74 13 -79 25 -79 185 0 126 2 140 18 141 73 6 309 -5 321 -14
8 -7 20 -27 28 -44 14 -35 46 -45 57 -17 3 9 6 67 6 130 l0 114 -29 0 c-25 0
-30 -5 -35 -33 -3 -19 -18 -44 -31 -57 -24 -23 -34 -24 -158 -26 -197 -2 -178
-19 -175 160 l3 151 120 3 c138 3 240 -10 295 -38 43 -22 87 -70 96 -106 4
-16 12 -24 23 -22 14 3 16 20 16 118 l0 115 -501 3 c-452 2 -502 1 -508 -14z"/>
<path d="M5340 2169 c-60 -24 -79 -80 -41 -118 40 -40 145 -40 187 0 72 68
-41 159 -146 118z"/>
<path d="M7160 2169 c-42 -17 -60 -40 -60 -76 0 -27 6 -37 33 -53 58 -36 151
-23 183 24 33 52 -7 102 -88 111 -24 3 -54 0 -68 -6z"/>
<path d="M8380 2173 c-40 -13 -60 -28 -71 -54 -9 -24 -9 -33 5 -54 43 -66 190
-58 217 12 22 59 -75 122 -151 96z"/>
<path d="M7097 1793 c-6 -72 6 -87 30 -37 15 33 25 40 60 48 71 15 73 9 73
-180 0 -89 -4 -174 -10 -188 -5 -14 -20 -28 -35 -32 -53 -13 -21 -24 70 -24
91 0 123 11 70 24 -14 4 -27 16 -30 29 -3 12 -4 101 -3 197 l3 175 33 -2 c63
-2 80 -11 92 -49 17 -50 32 -30 28 37 -3 48 -5 54 -23 50 -36 -8 -320 -6 -336
2 -14 7 -17 -1 -22 -50z"/>
<path d="M4819 1827 c-124 -47 -183 -168 -145 -300 19 -65 79 -126 144 -145
42 -13 151 -14 192 -3 26 7 46 39 56 90 9 42 -9 40 -36 -4 -27 -44 -66 -65
-120 -65 -102 0 -170 85 -170 213 0 105 50 178 136 197 71 17 122 -9 171 -86
10 -16 12 -13 12 27 1 72 -12 82 -115 86 -58 2 -102 -1 -125 -10z"/>
<path d="M5254 1821 c-105 -48 -156 -205 -103 -321 40 -88 103 -130 194 -130
188 0 290 229 173 391 -54 75 -172 102 -264 60z m121 -11 c25 0 78 -54 98
-100 44 -99 17 -252 -52 -293 -99 -58 -207 29 -219 179 -5 69 9 123 45 171 23
32 74 55 101 47 8 -2 20 -4 27 -4z"/>
<path d="M5650 1822 c0 -5 12 -14 26 -21 l27 -12 -7 -102 c-15 -232 -18 -249
-43 -273 -12 -12 -23 -24 -23 -28 0 -3 32 -6 70 -6 40 0 70 4 70 10 0 6 -4 10
-10 10 -5 0 -19 9 -30 20 -19 19 -20 29 -15 153 4 73 9 139 11 147 3 8 35 -64
72 -160 37 -96 71 -175 75 -175 5 0 41 81 80 179 l72 180 9 -121 c10 -145 3
-209 -25 -218 -42 -14 -15 -25 61 -25 81 0 99 8 57 27 -22 10 -24 19 -30 110
-4 54 -7 137 -7 186 0 84 1 88 25 99 40 18 29 28 -29 28 l-54 0 -65 -157 c-35
-86 -68 -158 -73 -160 -5 -1 -38 68 -74 155 l-65 157 -53 3 c-28 2 -52 -1 -52
-6z"/>
<path d="M6220 1823 c0 -4 10 -13 23 -18 22 -10 22 -14 25 -198 l2 -187 -25
-12 c-45 -20 -27 -28 65 -28 94 0 111 8 60 27 -30 11 -30 12 -30 86 l0 74 48
-4 c92 -8 157 50 157 143 0 47 -4 57 -33 86 l-32 33 -130 3 c-72 2 -130 0
-130 -5z m230 -48 c29 -29 34 -95 11 -138 -16 -29 -58 -50 -93 -45 -22 3 -23
7 -26 102 -2 73 1 102 10 108 21 14 71 0 98 -27z"/>
<path d="M6590 1822 c0 -5 11 -14 24 -20 24 -11 24 -13 28 -164 3 -131 6 -158
23 -187 29 -49 67 -73 123 -79 65 -6 114 11 151 53 38 43 51 107 51 245 0 112
9 140 46 140 8 0 14 5 14 10 0 6 -33 10 -80 10 -84 0 -100 -8 -51 -27 27 -10
30 -15 36 -78 10 -86 0 -207 -20 -244 -26 -51 -64 -74 -113 -68 -91 10 -112
57 -112 246 l0 141 25 6 c51 13 23 24 -60 24 -47 0 -85 -4 -85 -8z"/>
<path d="M7550 1822 c0 -4 10 -12 23 -17 22 -10 22 -14 25 -198 l2 -189 -30
-11 c-16 -6 -30 -15 -30 -19 0 -4 74 -8 164 -8 l164 0 6 38 c4 20 9 45 12 55
10 31 -15 18 -41 -23 l-26 -41 -72 3 -72 3 0 90 0 90 47 3 c44 3 49 1 66 -27
10 -17 22 -28 25 -24 11 10 8 133 -3 133 -5 0 -10 -4 -10 -9 0 -24 -34 -41
-81 -41 l-49 0 0 85 c0 81 1 85 24 91 13 3 43 2 67 -3 36 -7 47 -14 59 -40 21
-46 30 -41 30 17 l0 50 -150 0 c-82 0 -150 -3 -150 -8z"/>
<path d="M7930 1825 c0 -2 14 -11 30 -20 l30 -16 0 -185 0 -186 -30 -11 c-52
-20 -33 -27 65 -27 98 0 117 7 65 27 -30 11 -30 12 -30 85 0 41 2 77 5 80 3 3
17 3 31 0 19 -3 40 -26 77 -84 53 -80 103 -118 155 -118 31 0 27 17 -9 47 -17
14 -53 59 -81 100 l-50 75 40 34 c46 39 59 78 42 129 -20 62 -57 75 -209 75
-72 0 -131 -2 -131 -5z m215 -29 c41 -17 55 -42 55 -95 0 -57 -32 -91 -93 -98
l-47 -6 0 101 c0 118 10 129 85 98z"/>
<path d="M2400 1250 c-109 -17 -197 -74 -262 -168 -17 -25 -69 -119 -116 -211
-111 -218 -152 -271 -257 -331 -113 -64 -81 -62 -932 -60 l-772 1 -5 -23 c-6
-25 -31 -259 -42 -381 l-7 -78 869 3 869 3 58 27 c112 52 217 188 272 347 76
224 221 361 427 405 77 16 351 36 838 61 162 8 331 17 375 20 44 3 197 12 340
21 253 14 1103 73 1355 94 69 5 251 19 405 30 154 11 390 29 525 40 135 11
360 29 500 40 577 45 785 62 1194 95 236 19 446 35 467 35 21 0 41 5 44 11 5
7 -11 10 -47 8 -97 -3 -5448 11 -5748 15 -162 2 -320 0 -350 -4z"/>
<path d="M2370 450 c-18 -18 -20 -33 -20 -151 l0 -130 28 3 27 3 3 113 c3 140
16 143 53 13 32 -110 48 -131 100 -131 60 0 69 21 69 167 l0 123 -30 0 -29 0
-3 -112 c-4 -156 -14 -152 -64 26 -9 32 -25 67 -35 77 -25 25 -74 24 -99 -1z"/>
<path d="M3463 463 c-62 -4 -63 -4 -63 -33 l0 -30 79 0 c57 0 80 -4 84 -13 9
-25 -8 -34 -70 -39 -84 -6 -93 -15 -93 -99 l0 -69 30 0 c28 0 30 3 30 35 0 19
3 35 6 35 3 0 34 -16 68 -35 80 -44 106 -46 106 -5 0 25 -6 32 -47 50 l-48 21
41 18 c45 20 54 35 54 86 0 68 -42 87 -177 78z"/>
<path d="M3766 457 c-17 -12 -96 -234 -96 -270 0 -14 6 -18 28 -15 25 3 30 11
63 112 19 61 40 111 45 113 5 2 25 -47 44 -109 31 -99 38 -113 59 -116 13 -2
27 0 32 5 13 13 -69 254 -93 276 -24 20 -57 22 -82 4z"/>
<path d="M4283 458 c-34 -17 -45 -58 -42 -158 5 -120 15 -130 134 -130 119 0
129 10 134 130 3 102 -8 142 -45 159 -31 14 -151 13 -181 -1z m151 -64 c19
-19 22 -134 4 -152 -16 -16 -110 -16 -126 0 -18 18 -15 133 4 152 21 21 97 21
118 0z"/>
<path d="M4593 463 c-51 -4 -53 -5 -53 -33 l0 -29 78 -3 c69 -3 77 -5 77 -23
0 -17 -8 -21 -61 -25 -85 -7 -94 -17 -94 -102 l0 -69 27 3 c22 2 29 9 34 33 6
35 11 35 78 -5 29 -16 63 -30 76 -30 21 0 25 5 25 28 0 24 -7 32 -40 47 -37
17 -53 35 -31 35 5 0 23 12 40 26 25 20 31 34 31 64 0 74 -45 95 -187 83z"/>
<path d="M7044 445 c-24 -24 -25 -28 -22 -147 l3 -123 25 0 c25 0 25 1 30 109
7 162 22 155 70 -32 14 -56 41 -82 84 -82 65 0 79 36 74 190 l-3 95 -27 3 -28
3 0 -88 c0 -48 -3 -98 -6 -110 -7 -25 -22 -30 -29 -10 -2 6 -15 51 -30 99 -14
48 -32 94 -41 102 -24 24 -71 20 -100 -9z"/>
<path d="M7372 450 c-29 -28 -35 -55 -31 -156 5 -113 17 -124 134 -124 116 0
129 11 133 119 8 158 -10 181 -141 181 -60 0 -77 -4 -95 -20z m162 -56 c19
-19 22 -134 4 -152 -16 -16 -110 -16 -126 0 -18 18 -15 133 4 152 21 21 97 21
118 0z"/>
<path d="M7955 445 c-23 -22 -25 -31 -25 -128 0 -95 2 -105 23 -125 20 -19 35
-22 110 -22 120 0 127 8 127 147 0 97 -2 106 -25 128 -22 22 -32 25 -105 25
-73 0 -83 -3 -105 -25z m163 -44 c9 -5 12 -30 10 -87 l-3 -79 -65 0 -65 0 -3
79 c-3 91 0 96 68 96 25 0 51 -4 58 -9z"/>
<path d="M8675 456 c-11 -8 -37 -65 -61 -137 l-42 -124 -1 133 -1 132 -30 0
-31 0 3 -142 3 -143 60 0 60 0 35 113 c19 62 39 111 44 109 6 -2 26 -53 46
-113 32 -101 37 -109 63 -112 20 -2 27 1 27 13 0 34 -73 248 -91 266 -22 22
-58 24 -84 5z"/>
<path d="M2254 447 c-2 -7 -3 -71 -2 -143 l3 -129 28 -3 27 -3 0 145 0 146
-25 0 c-14 0 -28 -6 -31 -13z"/>
<path d="M2650 430 c0 -27 3 -30 30 -30 l29 0 3 -112 3 -113 27 -3 27 -3 3
113 3 113 30 5 c24 4 31 11 33 33 l3 27 -95 0 -96 0 0 -30z"/>
<path d="M2887 442 c-14 -15 -17 -40 -17 -124 0 -138 5 -143 134 -143 l91 0 0
30 0 30 -80 5 c-72 4 -80 7 -80 25 0 18 8 20 83 23 l82 3 0 29 0 29 -82 3
c-75 3 -83 5 -83 23 0 18 8 20 83 23 l82 3 0 29 0 30 -98 0 c-83 0 -102 -3
-115 -18z"/>
<path d="M3150 433 c-19 -25 -21 -38 -18 -120 4 -117 17 -135 108 -141 98 -7
140 23 140 102 0 52 -18 68 -75 64 -42 -3 -50 -6 -50 -23 0 -14 8 -21 30 -25
22 -4 30 -11 30 -25 0 -17 -8 -20 -54 -23 -37 -2 -57 1 -62 10 -14 21 -11 124
4 136 7 6 46 12 87 14 73 3 75 4 75 28 0 25 -1 25 -96 28 -96 3 -97 2 -119
-25z"/>
<path d="M3964 447 c-2 -7 -3 -71 -2 -143 l3 -129 102 0 c93 0 105 2 125 23
21 20 23 32 23 123 0 133 -6 139 -146 139 -73 0 -101 -4 -105 -13z m181 -57
c12 -20 16 -65 10 -107 l-6 -43 -60 0 -59 0 0 80 0 80 54 0 c30 0 58 -5 61
-10z"/>
<path d="M4842 452 c-21 -14 -29 -63 -27 -156 4 -118 7 -121 133 -121 l97 0 0
30 0 30 -80 5 c-74 5 -80 7 -83 28 -3 21 -1 22 83 22 l86 0 -3 28 c-3 27 -4
27 -86 30 -79 3 -83 4 -80 25 3 20 10 22 83 27 78 5 80 6 83 33 l3 27 -98 0
c-54 0 -104 -4 -111 -8z"/>
<path d="M5102 440 c-16 -15 -22 -32 -22 -64 0 -61 24 -80 109 -86 58 -4 66
-8 66 -25 0 -18 -8 -20 -85 -25 l-85 -5 0 -30 c0 -30 1 -30 60 -33 132 -7 179
18 179 95 0 54 -31 77 -112 83 -59 4 -67 7 -67 25 0 18 8 20 83 23 l82 3 0 29
0 30 -93 0 c-80 0 -96 -3 -115 -20z"/>
<path d="M5589 456 c-2 -2 -3 -68 -1 -146 l3 -142 99 4 c88 3 102 6 122 26 21
20 23 32 23 123 0 133 -6 139 -144 139 -54 0 -100 -2 -102 -4z m179 -68 c12
-12 17 -104 6 -132 -5 -12 -21 -16 -65 -16 l-59 0 0 80 0 80 53 0 c29 0 58 -5
65 -12z"/>
<path d="M5876 438 c-10 -16 -15 -52 -15 -120 0 -137 6 -143 136 -143 l98 0 0
30 0 30 -82 3 c-46 2 -84 7 -84 12 -6 33 -2 35 81 40 83 5 85 6 85 30 0 24 -2
25 -85 30 -83 5 -87 7 -81 40 0 5 38 10 84 12 81 3 82 3 85 31 l3 27 -105 0
c-98 0 -107 -2 -120 -22z"/>
<path d="M6305 450 c-14 -22 6 -50 35 -50 l29 0 3 -112 3 -113 25 0 c25 0 25
1 30 110 l5 110 30 0 30 0 1 -88 c1 -122 10 -131 140 -135 l95 -4 -3 34 -3 33
-80 5 c-72 4 -80 7 -80 25 0 18 8 20 83 23 l82 3 0 29 0 29 -82 3 c-75 3 -83
5 -83 23 0 18 8 20 83 23 l82 3 0 29 0 30 -99 0 c-77 0 -101 -3 -112 -16 -11
-14 -13 -14 -21 0 -7 13 -28 16 -98 16 -49 0 -92 -5 -95 -10z"/>
<path d="M6811 434 c-17 -22 -21 -41 -21 -110 0 -46 5 -94 11 -108 15 -32 56
-46 136 -46 l64 0 -3 33 -3 32 -70 5 -70 5 -3 54 c-5 95 -2 100 76 103 65 3
67 4 70 31 l3 27 -85 0 c-79 0 -86 -2 -105 -26z"/>
<path d="M7667 453 c-9 -16 -6 -189 3 -225 13 -45 44 -58 147 -58 l74 0 -3 33
-3 32 -76 3 -77 3 -6 31 c-3 17 -6 66 -6 109 0 77 -1 79 -24 79 -14 0 -27 -3
-29 -7z"/>
<path d="M8259 441 c-22 -18 -24 -26 -24 -120 0 -126 12 -142 105 -149 98 -7
140 23 140 102 0 50 -19 69 -70 68 -23 -1 -47 -5 -52 -10 -15 -15 2 -41 30
-44 19 -2 27 -9 27 -23 0 -17 -8 -20 -58 -23 l-58 -3 3 78 3 78 80 5 c78 5 80
6 83 33 l3 27 -94 0 c-78 0 -99 -3 -118 -19z"/>
</g>
</svg>
