<?xml version="1.0" standalone="no"?>
<!DOCTYPE svg PUBLIC "-//W3C//DTD SVG 20010904//EN"
 "http://www.w3.org/TR/2001/REC-SVG-20010904/DTD/svg10.dtd">
<svg version="1.0" xmlns="http://www.w3.org/2000/svg"
 width="48.000000pt" height="48.000000pt" viewBox="0 0 48.000000 48.000000"
 preserveAspectRatio="xMidYMid meet">

<g transform="translate(0.000000,48.000000) scale(0.100000,-0.100000)"
fill="#000000" stroke="none">
<path d="M151 414 c-76 -38 -106 -87 -106 -175 0 -59 4 -73 30 -110 43 -61
105 -92 177 -87 76 5 127 40 162 109 33 68 33 113 -2 180 -22 43 -38 59 -81
81 -67 35 -112 35 -180 2z m16 -136 l28 -43 6 45 6 45 1 -57 c1 -32 -2 -58 -7
-58 -4 0 -21 19 -37 43 l-29 42 -6 -45 -6 -45 -1 58 c-1 32 2 57 8 57 5 0 22
-19 37 -42z m110 35 c-35 -5 -33 -34 3 -44 25 -7 25 -7 -3 -8 -36 -1 -34 -32
3 -42 23 -6 22 -7 -7 -8 l-33 -1 0 55 0 55 33 -1 c31 -2 31 -2 4 -6z m101 0
c-14 -3 -18 -15 -18 -54 0 -27 -4 -49 -10 -49 -5 0 -10 22 -10 49 0 39 -4 51
-17 54 -10 3 2 5 27 5 25 0 37 -2 28 -5z m-283 -93 c3 -5 1 -10 -4 -10 -6 0
-11 5 -11 10 0 6 2 10 4 10 3 0 8 -4 11 -10z m150 -71 c0 -7 -8 -15 -17 -17
-18 -3 -25 18 -11 32 10 10 28 1 28 -15z m65 1 c0 -11 -7 -20 -15 -20 -15 0
-21 21 -8 33 12 13 23 7 23 -13z m-120 -13 c11 -5 9 -6 -4 -4 -11 1 -21 9 -23
17 -3 10 -2 11 4 4 4 -6 15 -14 23 -17z"/>
<path d="M220 150 c0 -5 5 -10 10 -10 6 0 10 5 10 10 0 6 -4 10 -10 10 -5 0
-10 -4 -10 -10z"/>
</g>
</svg>
