<?xml version="1.0" standalone="no"?>
<!DOCTYPE svg PUBLIC "-//W3C//DTD SVG 20010904//EN"
 "http://www.w3.org/TR/2001/REC-SVG-20010904/DTD/svg10.dtd">
<svg version="1.0" xmlns="http://www.w3.org/2000/svg"
 width="720.000000pt" height="720.000000pt" viewBox="0 0 720.000000 720.000000"
 preserveAspectRatio="xMidYMid meet">

<g transform="translate(0.000000,720.000000) scale(0.100000,-0.100000)"
fill="#000000" stroke="none">
<path d="M1413 4675 c-428 -78 -767 -396 -876 -825 -18 -72 -22 -112 -21 -255
1 -150 4 -182 27 -268 31 -116 98 -263 163 -356 99 -140 258 -278 411 -355
316 -158 708 -149 1016 25 279 157 474 421 542 730 12 58 13 25 14 -373 l1
-437 308 0 c170 0 318 2 330 6 l22 5 0 610 c0 524 2 619 16 672 31 121 104
214 208 262 40 19 68 24 132 24 145 0 227 -48 286 -168 l33 -67 5 -670 5 -670
328 -2 327 -2 1 417 0 417 24 -95 c47 -189 125 -336 247 -465 166 -176 376
-280 635 -315 130 -18 374 -8 475 18 350 94 603 319 693 620 l6 22 -319 0
-319 0 -36 -53 c-65 -98 -168 -147 -312 -147 -187 0 -321 81 -398 241 -20 41
-43 105 -51 142 l-14 67 744 0 c589 0 744 3 744 13 0 6 -5 72 -10 146 -28 362
-141 636 -342 827 -87 83 -137 118 -233 166 -146 74 -301 108 -489 108 -499 0
-889 -297 -1020 -777 l-25 -88 0 77 c-4 369 -168 640 -452 745 -169 63 -426
55 -588 -19 -97 -45 -240 -166 -295 -250 -10 -16 -22 -28 -27 -28 -5 0 -9 63
-9 140 l0 140 -315 0 -315 0 -1 -437 -1 -438 -18 80 c-99 433 -446 765 -878
840 -102 18 -280 18 -379 0z m4499 -486 c23 -12 55 -31 71 -43 66 -49 137
-179 151 -278 l7 -48 -405 0 c-458 0 -419 -8 -392 81 42 138 112 231 210 279
106 52 266 56 358 9z m-4562 -394 c0 -18 -7 -28 -25 -35 -14 -5 -25 -17 -25
-25 0 -13 9 -15 43 -13 36 3 42 6 43 26 3 54 3 53 41 50 34 -3 38 -6 39 -33 1
-16 2 -33 3 -37 0 -5 28 -8 61 -8 l59 0 10 -37 c5 -21 14 -54 19 -73 8 -35 8
-35 27 38 l19 72 36 0 c37 0 37 0 50 -57 19 -88 24 -90 44 -13 l18 70 40 0
c28 0 39 -4 35 -12 -2 -7 -19 -64 -38 -125 l-33 -113 -38 0 c-40 0 -44 7 -64
108 -11 53 -20 45 -38 -33 l-18 -75 -37 0 -38 0 -28 95 c-28 94 -29 95 -60 95
l-31 0 2 -57 c2 -76 1 -73 24 -73 16 0 20 -7 20 -30 0 -28 -2 -30 -39 -30 -23
0 -48 8 -62 18 -19 17 -22 28 -23 95 l-1 77 -42 0 -43 0 0 -95 0 -95 -40 0
-40 0 0 95 c0 88 -1 95 -20 95 -16 0 -20 7 -20 30 0 23 4 30 20 30 15 0 20 7
20 28 0 47 31 71 93 72 33 0 37 -3 37 -25z m-494 -84 c17 -10 34 -28 37 -40 5
-19 1 -21 -33 -21 -25 0 -40 5 -44 16 -8 21 -60 15 -64 -8 -2 -13 9 -19 53
-28 68 -14 95 -38 95 -83 0 -57 -64 -93 -144 -80 -42 7 -86 41 -86 68 0 20 63
21 80 0 15 -18 66 -20 76 -3 9 15 -24 38 -55 38 -37 0 -89 35 -97 65 -7 30 17
72 49 85 38 15 100 11 133 -9z m262 -1 c88 -54 80 -185 -14 -231 -57 -27 -103
-20 -151 24 -116 107 30 289 165 207z m952 5 c35 -18 38 -31 42 -153 l3 -92
-37 0 c-29 0 -38 4 -38 17 0 14 -2 14 -20 -2 -28 -25 -96 -24 -122 3 -25 25
-26 76 -2 103 9 10 43 24 75 30 45 9 59 16 59 29 0 10 -7 21 -16 24 -17 7 -54
-10 -54 -24 0 -6 -16 -10 -35 -10 -27 0 -35 4 -35 18 0 19 34 55 60 65 30 11
92 7 120 -8z m230 -20 c0 -28 -4 -35 -20 -35 -42 0 -60 -34 -60 -115 l0 -75
-40 0 -40 0 0 125 0 125 40 0 c31 0 40 -4 40 -17 0 -15 1 -15 13 -1 12 16 32
26 55 27 7 1 12 -12 12 -34z m198 15 c33 -20 62 -71 62 -110 0 -19 -6 -20 -90
-20 -94 0 -104 -6 -70 -40 24 -24 39 -25 66 -5 24 18 84 20 84 2 0 -21 -43
-56 -80 -67 -71 -20 -153 28 -166 98 -22 115 97 201 194 142z"/>
<path d="M1004 3645 c-18 -28 -14 -85 7 -111 31 -38 89 1 89 61 0 68 -63 101
-96 50z"/>
<path d="M1990 3577 c-46 -16 -49 -50 -5 -55 31 -4 55 18 55 50 0 21 -3 21
-50 5z"/>
<path d="M2390 3650 c-12 -22 -12 -22 45 -25 40 -2 47 3 35 26 -15 26 -66 26
-80 -1z"/>
</g>
</svg>
