<?xml version="1.0" standalone="no"?>
<!DOCTYPE svg PUBLIC "-//W3C//DTD SVG 20010904//EN"
 "http://www.w3.org/TR/2001/REC-SVG-20010904/DTD/svg10.dtd">
<svg version="1.0" xmlns="http://www.w3.org/2000/svg"
 width="48.000000pt" height="48.000000pt" viewBox="0 0 48.000000 48.000000"
 preserveAspectRatio="xMidYMid meet">

<g transform="translate(0.000000,48.000000) scale(0.100000,-0.100000)"
fill="#000000" stroke="none">
<path d="M135 380 c19 -21 30 -27 20 -10 -3 6 0 10 7 11 7 0 4 4 -7 9 -33 14
-39 11 -20 -10z"/>
<path d="M185 370 c3 -6 0 -12 -7 -15 -9 -4 -12 -19 -10 -47 l4 -41 19 24 c13
17 19 19 19 9 0 -9 -13 -24 -30 -33 -16 -10 -30 -23 -30 -28 0 -6 5 -7 12 -3
7 4 8 3 4 -5 -4 -6 -11 -9 -15 -6 -5 2 -19 -7 -31 -20 -23 -24 -21 -24 47 7
40 18 71 35 70 38 -1 3 5 15 13 27 11 17 18 19 32 12 10 -6 16 -14 13 -20 -4
-5 1 -9 9 -9 9 0 16 4 16 9 0 4 12 7 28 5 24 -3 25 -3 3 4 -23 7 -23 8 -5 30
18 22 20 22 43 6 18 -13 20 -18 10 -25 -11 -7 -10 -9 4 -9 9 0 17 4 17 8 0 22
-92 77 -113 68 -8 -3 -8 -5 1 -5 7 -1 19 -7 27 -14 11 -11 10 -17 -5 -37 -25
-33 -50 -13 -44 36 3 28 1 34 -14 34 -10 0 -19 -6 -19 -14 0 -8 6 -12 14 -9 9
4 11 0 7 -11 -3 -9 -13 -16 -21 -16 -8 0 -12 -4 -9 -9 3 -5 -1 -11 -9 -15 -17
-6 -20 5 -6 20 5 5 7 21 4 37 -4 21 -11 27 -30 27 -14 0 -21 -4 -18 -10z m35
-23 c0 -8 -9 -22 -20 -32 -18 -16 -20 -16 -20 -2 0 10 8 18 18 18 16 1 16 2
-1 6 -9 2 -15 9 -12 14 9 14 35 11 35 -4z m1 -87 c-33 -30 -41 -34 -41 -25 0
10 52 55 63 55 7 0 -3 -14 -22 -30z"/>
<path d="M258 253 c7 -3 16 -2 19 1 4 3 -2 6 -13 5 -11 0 -14 -3 -6 -6z"/>
</g>
</svg>
